<svg xmlns="http://www.w3.org/2000/svg" width="4096" height="4096" viewBox="0 0 4096 4096">
  <defs>
    <linearGradient id="bgIvory" x1="0%" y1="0%" x2="100%" y2="100%">
      <stop offset="0%" stop-color="#fcf7eb"/>
      <stop offset="35%" stop-color="#f2ebdc"/>
      <stop offset="100%" stop-color="#e2d8c4"/>
    </linearGradient>
    <linearGradient id="veinIvory" x1="0%" y1="0%" x2="100%" y2="100%">
      <stop offset="0%" stop-color="#ffffff" stop-opacity="0.55"/>
      <stop offset="55%" stop-color="#d7c6a3" stop-opacity="0.36"/>
      <stop offset="100%" stop-color="#9d8b68" stop-opacity="0.16"/>
    </linearGradient>
    <filter id="grainIvory" x="-20%" y="-20%" width="140%" height="140%">
      <feTurbulence type="fractalNoise" baseFrequency="0.0075" numOctaves="4" seed="14" result="noise"/>
      <feColorMatrix in="noise" type="saturate" values="0" result="mono"/>
      <feGaussianBlur stdDeviation="0.7" result="soft"/>
      <feBlend in="SourceGraphic" in2="soft" mode="screen"/>
    </filter>
    <filter id="blurIvory" x="-30%" y="-30%" width="160%" height="160%">
      <feGaussianBlur stdDeviation="16"/>
    </filter>
    <pattern id="marblePatternIvory" width="2400" height="2400" patternUnits="userSpaceOnUse">
      <rect width="2400" height="2400" fill="url(#bgIvory)"/>
      <rect width="2400" height="2400" fill="url(#veinIvory)" opacity="0.60"/>
      <g filter="url(#grainIvory)" opacity="0.88">
        <rect width="2400" height="2400" fill="#ffffff" opacity="0.08"/>
      </g>
      <path d="M-180 780C410 380, 760 480, 1160 860S1870 1480, 2470 1020" stroke="#cdbd90" stroke-width="26" fill="none" stroke-linecap="round" opacity="0.44"/>
      <path d="M140 0C700 420, 1000 620, 1520 980S2240 1560, 2500 2400" stroke="#e8dcc3" stroke-width="14" fill="none" stroke-linecap="round" opacity="0.30"/>
      <path d="M320 2100C860 1760, 1220 1620, 1670 1880S2280 2460, 2550 2550" stroke="#a28357" stroke-width="13" fill="none" stroke-linecap="round" opacity="0.24"/>
      <path d="M-100 1480C480 1120, 860 1060, 1260 1300S2070 1820, 2550 1400" stroke="#cdbd90" stroke-width="11" fill="none" stroke-linecap="round" opacity="0.22"/>
      <circle cx="1510" cy="980" r="560" fill="#fdf6e4" opacity="0.11" filter="url(#blurIvory)"/>
      <circle cx="1810" cy="1820" r="710" fill="#e4d0a5" opacity="0.10" filter="url(#blurIvory)"/>
    </pattern>
  </defs>
  <rect width="4096" height="4096" fill="url(#marblePatternIvory)"/>
  <rect width="4096" height="4096" fill="url(#marblePatternIvory)" opacity="0.94"/>
</svg>
